{"title":"Naruto Shippuuden - 330 [720p] [ENG-SUBBED] [GWC].mp4","uid":8910297,"size":99023571,"categoryP":"video","categoryS":"tv_shows","magnet":"?xt=urn:btih:b486c10bf72337304cea72445ea93225e94a4f2d&amp;dn=Naruto+Shippuuden+-+330+%5B720p%5D+%5BENG-SUBBED%5D+%5BGWC%5D.mp4&amp;tr=udp%3A%2F%2Ftracker.openbittorrent.com%3A80&amp;tr=udp%3A%2F%2Fopen.demonii.com%3A1337&amp;tr=udp%3A%2F%2Ftracker.coppersurfer.tk%3A6969&amp;tr=udp%3A%2F%2Fexodus.desync.com%3A6969","seeders":0,"leechers":1,"uploader":"canc232","files":1,"time":1379004769,"description":"Naruto Shippuuden - 330 [720p] [ENG-SUBBED] [GWC].MP4\n\nNaruto Shippuden Episode 330 -  The Promise of Victory\n\nTHUMBNAIL IMAGE :\n &lt;a href=&quot;\nhttp://img542.imageshack.us/img542/508/opbx.jpg&quot; rel=&quot;nofollow&quot; target=&quot;_NEW&quot;&gt;\nhttp://img542.imageshack.us/img542/508/opbx.jpg&lt;/a&gt;\n\n\nMEDIA INFO :\n\nGeneral \nFormat : MPEG-4 \nFile size : 94.4 MiB \nDuration : 23mn 9s \nOverall bit rate mode : Variable \nOverall bit rate : 570 Kbps \n\nVideo \nID : 1 \nFormat : AVC \nFormat profile : &lt;a class=&quot;__cf_email__&quot; href=&quot;/cdn-cgi/l/email-protection&quot; data-cfemail=&quot;b5fddcd2ddf5f9819b84&quot;&gt;[email&amp;#160;protected]&lt;/a&gt;&lt;script cf-hash='f9e31' type=&quot;text/javascript&quot;&gt;\n/* &lt;![CDATA[ */!function(){try{var t=&quot;currentScript&quot;in document?document.currentScript:function(){for(var t=document.getElementsByTagName(&quot;script&quot;),e=t.length;e--;)if(t[e].getAttribute(&quot;cf-hash&quot;))return t[e]}();if(t&amp;&amp;t.previousSibling){var e,r,n,i,c=t.previousSibling,a=c.getAttribute(&quot;data-cfemail&quot;);if(a){for(e=&quot;&quot;,r=parseInt(a.substr(0,2),16),n=2;a.length-n;n+=2)i=parseInt(a.substr(n,2),16)^r,e+=String.fromCharCode(i);e=document.createTextNode(e),c.parentNode.replaceChild(e,c)}}}catch(u){}}();/* ]]&gt; */&lt;/script&gt; \nFormat settings, CABAC : Yes \nFormat settings, ReFrames : 11 frames \nDuration : 23mn 9s \nBit rate : 510 Kbps \nMaximum bit rate : 2 774 Kbps \nWidth : 1 280 pixels \nHeight : 720 pixels \nFrame rate : 23.976 fps \nStream size : 84.5 MiB\nTitle : Naruto Shippuuden - 330 [720p] [ENG-SUBBED] [GWC] \nWriting library : x264 core \n\nAudio \nID : 2 \nFormat : AAC \nFormat profile : HE-AAC / LC \nCodec ID : 40 \nDuration : 23mn 9s \nBit rate mode : Variable \nChannel(s) : 2 channels \nChannel positions : Front: L R \nSampling rate : 44.1 KHz / 22.05 KHz \nStream size : 8.58 MiB\nTitle : Naruto Shippuuden - 330 [720p] [ENG-SUBBED] [GWC] \nLanguage : Japanese \n\nText \nID : 3 \nFormat : Timed Text \nCodec ID : tx3g \nDuration : 23mn 8s \nStream size : 13.5 KiB (0%) \nTitle : [GWC] \nLanguage : English","torrent":{"xt":"urn:btih:b486c10bf72337304cea72445ea93225e94a4f2d","amp;dn":"Naruto+Shippuuden+-+330+%5B720p%5D+%5BENG-SUBBED%5D+%5BGWC%5D.mp4","amp;tr":["udp%3A%2F%2Ftracker.openbittorrent.com%3A80","udp%3A%2F%2Fopen.demonii.com%3A1337","udp%3A%2F%2Ftracker.coppersurfer.tk%3A6969","udp%3A%2F%2Fexodus.desync.com%3A6969"],"infoHash":"b486c10bf72337304cea72445ea93225e94a4f2d","infoHashBuffer":{"type":"Buffer","data":[180,134,193,11,247,35,55,48,76,234,114,68,94,169,50,37,233,74,79,45]},"announce":[],"urlList":[]}}